<?xml version="1.0" encoding="UTF-8" standalone="no"?><!DOCTYPE svg PUBLIC "-//W3C//DTD SVG 1.1//EN" "http://www.w3.org/Graphics/SVG/1.1/DTD/svg11.dtd"><svg width="100%" height="100%" viewBox="0 0 448 512" version="1.1" xmlns="http://www.w3.org/2000/svg" xmlns:xlink="http://www.w3.org/1999/xlink" xml:space="preserve" xmlns:serif="http://www.serif.com/" style="fill-rule:evenodd;clip-rule:evenodd;stroke-linejoin:round;stroke-miterlimit:2;"><path d="M32,32c-17.7,0 -32,14.3 -32,32l0,96c0,17.7 14.3,32 32,32c17.7,0 32,-14.3 32,-32l0,-64l64,0c17.7,0 32,-14.3 32,-32c0,-17.7 -14.3,-32 -32,-32l-96,0Zm32,320c0,-17.7 -14.3,-32 -32,-32c-17.7,0 -32,14.3 -32,32l0,96c0,17.7 14.3,32 32,32l96,0c17.7,0 32,-14.3 32,-32c0,-17.7 -14.3,-32 -32,-32l-64,0l0,-64Zm256,-320c-17.7,0 -32,14.3 -32,32c0,17.7 14.3,32 32,32l64,0l0,64c0,17.7 14.3,32 32,32c17.7,0 32,-14.3 32,-32l0,-96c0,-17.7 -14.3,-32 -32,-32l-96,0Zm128,320c0,-17.7 -14.3,-32 -32,-32c-17.7,0 -32,14.3 -32,32l0,64l-64,0c-17.7,0 -32,14.3 -32,32c0,17.7 14.3,32 32,32l96,0c17.7,0 32,-14.3 32,-32l0,-96Z" style="fill:#fff;fill-rule:nonzero;"/></svg>