<?xml version="1.0" encoding="UTF-8" standalone="no"?><!DOCTYPE svg PUBLIC "-//W3C//DTD SVG 1.1//EN" "http://www.w3.org/Graphics/SVG/1.1/DTD/svg11.dtd"><svg width="100%" height="100%" viewBox="0 0 448 512" version="1.1" xmlns="http://www.w3.org/2000/svg" xmlns:xlink="http://www.w3.org/1999/xlink" xml:space="preserve" xmlns:serif="http://www.serif.com/" style="fill-rule:evenodd;clip-rule:evenodd;stroke-linejoin:round;stroke-miterlimit:2;"><path d="M301.1,34.8c11.5,5.2 18.9,16.6 18.9,29.2l0,384c0,12.6 -7.4,24 -18.9,29.2c-11.5,5.2 -25,3.1 -34.4,-5.3l-134.9,-119.9l-67.8,0c-35.3,0 -64,-28.7 -64,-64l-0,-64c-0,-35.3 28.7,-64 64,-64l67.8,0l134.9,-119.9c9.4,-8.4 22.9,-10.4 34.4,-5.3Zm111.5,146.7c21.5,17.6 35.4,44.4 35.4,74.5c0,30.1 -13.9,56.9 -35.4,74.5c-10.3,8.4 -25.4,6.8 -33.8,-3.5c-8.4,-10.3 -6.8,-25.4 3.5,-33.8c10.8,-8.8 17.7,-22.2 17.7,-37.2c0,-15 -6.9,-28.4 -17.7,-37.3c-10.3,-8.4 -11.8,-23.5 -3.5,-33.8c8.3,-10.3 23.5,-11.8 33.8,-3.5l0,0.1Z" style="fill:#fff;fill-rule:nonzero;"/></svg>